<svg width="26" height="20" viewBox="0 0 26 20" fill="none" xmlns="http://www.w3.org/2000/svg">
<g clip-path="url(#clip0_904_188)">
<path d="M24.4194 19.9996H13.6937C13.2061 19.9996 12.8516 19.5978 12.8516 19.1514V13.7942C12.8516 13.3032 13.2505 12.946 13.6937 12.946H16.8405C16.9734 12.946 17.0621 13.0353 17.0621 13.1692V14.7317C17.0621 14.8657 16.9734 14.9549 16.8405 14.9549H14.8903V17.9014H23.2228V14.9549H21.2726C21.1397 14.9549 21.051 14.8657 21.051 14.7317V13.1246C21.051 12.9907 21.1397 12.9014 21.2726 12.9014H24.4194C24.907 12.9014 25.2615 13.3032 25.2615 13.7496V19.1067C25.2615 19.6424 24.8626 19.9996 24.4194 19.9996ZM13.6937 13.3924C13.4721 13.3924 13.2948 13.571 13.2948 13.7942V19.1514C13.2948 19.3746 13.4721 19.5532 13.6937 19.5532H24.4194C24.641 19.5532 24.8183 19.3746 24.8183 19.1514V13.7942C24.8183 13.571 24.641 13.3924 24.4194 13.3924H21.4942V14.5085H23.4444C23.5773 14.5085 23.666 14.5978 23.666 14.7317V18.1692C23.666 18.3032 23.5773 18.3924 23.4444 18.3924H14.6244C14.4915 18.3924 14.4028 18.3032 14.4028 18.1692V14.7317C14.4028 14.5978 14.4915 14.5085 14.6244 14.5085H16.5746V13.3924H13.6937Z" fill="#7A7171"/>
<path d="M11.8355 5.49135H8.99895C8.86599 5.49135 8.77734 5.40206 8.77734 5.26814C8.77734 5.13421 8.86599 5.04492 8.99895 5.04492H11.8355C11.9685 5.04492 12.0571 5.13421 12.0571 5.26814C12.0571 5.40206 11.9685 5.49135 11.8355 5.49135Z" fill="#7A7171"/>
<path d="M13.2521 19.8214C13.2078 19.8214 13.1191 19.7768 13.0748 19.7321L0.265928 6.83036C0.0886427 6.69643 0 6.47321 0 6.25V0.892857C0 0.669643 0.0886427 0.446429 0.265928 0.267857C0.398892 0.0892857 0.620499 0 0.842105 0H3.98892C4.03324 0 4.12188 0.0446429 4.16621 0.0892857L16.9751 12.9911C17.0637 13.0804 17.0637 13.1696 17.0194 13.2589C17.0194 13.3482 16.9307 13.3929 16.8421 13.3929H13.6953C13.6066 13.3929 13.518 13.4375 13.4294 13.4821C13.3407 13.5714 13.2964 13.6607 13.2964 13.75V19.1071C13.2964 19.1964 13.3407 19.2857 13.385 19.375C13.4737 19.4643 13.4737 19.5982 13.385 19.6875C13.385 19.8214 13.2964 19.8214 13.2521 19.8214ZM0.842105 0.491071C0.753463 0.491071 0.66482 0.535714 0.576177 0.580357C0.531856 0.669643 0.487535 0.758929 0.487535 0.848214V6.20536C0.487535 6.29464 0.531856 6.38393 0.620499 6.47321L12.8532 18.7946V13.7946C12.8532 13.5714 12.9418 13.3482 13.1191 13.1696C13.2964 12.9911 13.518 12.9018 13.7396 12.9018H16.3103L3.9446 0.491071H0.842105Z" fill="#7A7171"/>
<path d="M6.11624 4.15193C6.07191 4.15193 5.98327 4.10728 5.93895 4.06264L3.58992 1.69657C3.50128 1.60728 3.50128 1.42871 3.58992 1.33943C3.67856 1.25014 3.85585 1.25014 3.94449 1.33943L6.33784 3.75014C6.42648 3.83943 6.42648 4.018 6.33784 4.10728C6.2492 4.15193 6.20488 4.15193 6.11624 4.15193Z" fill="#7A7171"/>
<path d="M7.97845 12.9463C7.93412 12.9463 7.84548 12.9016 7.80116 12.857L7.53523 12.5891C7.44659 12.4999 7.44659 12.3213 7.53523 12.232C7.62387 12.1427 7.80116 12.1427 7.8898 12.232L8.20005 12.5445C8.28869 12.6338 8.28869 12.8124 8.20005 12.9016C8.11141 12.9463 8.06709 12.9463 7.97845 12.9463Z" fill="#7A7171"/>
<path d="M11.0811 16.0709C11.0368 16.0709 10.9481 16.0262 10.9038 15.9816L8.55476 13.6155C8.46612 13.5262 8.46612 13.3477 8.55476 13.2584C8.64341 13.1691 8.82069 13.1691 8.90933 13.2584L11.2584 15.6244C11.347 15.7137 11.347 15.8923 11.2584 15.9816C11.214 16.0262 11.1254 16.0709 11.0811 16.0709Z" fill="#7A7171"/>
<path d="M21.231 15C21.1867 15 21.0981 14.9554 21.0538 14.9107L8.24489 2.00893C8.20057 1.96429 8.15625 1.91964 8.15625 1.83036V0.223214C8.20057 0.0892857 8.28921 0 8.42218 0C8.55514 0 8.64378 0.0892857 8.64378 0.223214V1.69643L21.4083 14.5536C21.497 14.6429 21.497 14.8214 21.4083 14.9107C21.364 14.9554 21.3197 15 21.231 15Z" fill="#7A7171"/>
<path d="M24.8633 13.5714C24.8189 13.5714 24.7303 13.5268 24.686 13.4821C24.5973 13.3929 24.5087 13.3929 24.42 13.3929H21.2732C21.2289 13.3929 21.1403 13.3482 21.0959 13.3036L13.5613 5.75893C13.4727 5.66964 13.4727 5.49107 13.5613 5.40179C13.65 5.3125 13.8272 5.3125 13.9159 5.40179L21.3619 12.9018H24.1098L11.8328 0.580357C11.7441 0.491071 11.6555 0.446429 11.5669 0.446429H8.99622L12.8965 4.375C12.9851 4.46429 12.9851 4.64286 12.8965 4.73214C12.8079 4.82143 12.6306 4.82143 12.5419 4.73214L8.19843 0.357143C8.10979 0.267857 8.10979 0.178571 8.15411 0.0892857C8.24276 0.0446429 8.3314 0 8.42004 0H11.5669C11.7885 0 12.0101 0.0892857 12.1874 0.267857L24.9962 13.1696C25.0849 13.2589 25.0849 13.4375 24.9962 13.5268C24.9519 13.5714 24.9076 13.5714 24.8633 13.5714Z" fill="#7A7171"/>
<path d="M23.4472 18.4371C23.4029 18.4371 23.3142 18.3924 23.2699 18.3478L21.8516 16.9192C21.763 16.8299 21.763 16.6514 21.8516 16.5621C21.9403 16.4728 22.1176 16.4728 22.2062 16.5621L23.6245 17.9907C23.7131 18.0799 23.7131 18.2585 23.6245 18.3478C23.5802 18.3924 23.4915 18.4371 23.4472 18.4371Z" fill="#7A7171"/>
<path d="M13.2514 13.5711C13.2071 13.5711 13.1184 13.5265 13.0741 13.4819L2.96883 3.34794C2.88018 3.25865 2.88018 3.12472 2.96883 2.99079C3.05747 2.90151 3.23475 2.90151 3.3234 2.99079L13.4287 13.1694C13.5173 13.2586 13.5173 13.4372 13.4287 13.5265C13.3843 13.5711 13.2957 13.5711 13.2514 13.5711Z" fill="#7A7171"/>
<path d="M2.17152 2.41071C2.1272 2.41071 2.03855 2.36607 1.99423 2.32143L0.265701 0.580357C0.177058 0.491071 0.177058 0.3125 0.265701 0.223214C0.354343 0.133929 0.531629 0.133929 0.620271 0.223214L2.3488 1.96429C2.43745 2.05357 2.43745 2.23214 2.3488 2.32143C2.30448 2.41071 2.21584 2.41071 2.17152 2.41071Z" fill="#7A7171"/>
</g>
<defs>
<clipPath id="clip0_904_188">
<rect width="25.2632" height="20" fill="white"/>
</clipPath>
</defs>
</svg>
