<svg width="20" height="20" viewBox="0 0 20 20" fill="none" xmlns="http://www.w3.org/2000/svg">
<g clip-path="url(#clip0_904_159)">
<path d="M18.9106 20H8.7311C8.59947 20 8.51172 19.9164 8.51172 19.7908V18.9958C8.51172 18.4938 8.95049 18.0753 9.47702 18.0753H12.1974C12.5484 18.0753 12.8117 17.8243 12.8117 17.4896V13.682V10.6276C12.8117 10.3348 12.5484 10.0419 12.1974 10.0419H9.47702C8.95049 10.0419 8.51172 9.62346 8.51172 9.12137V8.32639C8.51172 8.20087 8.59947 8.11719 8.7311 8.11719H18.9106C19.0422 8.11719 19.13 8.20087 19.13 8.32639V9.12137C19.13 9.62346 18.6912 10.0419 18.1647 10.0419H15.4443C15.1372 10.0419 14.83 10.2929 14.83 10.6276V13.682V17.4896C14.83 17.7825 15.0933 18.0753 15.4443 18.0753H18.1647C18.6912 18.0753 19.13 18.4938 19.13 18.9958V19.7908C19.13 19.8745 19.0422 20 18.9106 20ZM8.95049 19.5398H18.6473V18.9958C18.6473 18.7448 18.428 18.4938 18.1208 18.4938H15.4004C14.83 18.4938 14.3474 18.0335 14.3474 17.4896V13.682V10.6276C14.3474 10.0837 14.83 9.62346 15.4004 9.62346H18.1208C18.3841 9.62346 18.6473 9.41426 18.6473 9.12137V8.57744H8.95049V9.12137C8.95049 9.37242 9.16988 9.62346 9.47702 9.62346H12.1974C12.7678 9.62346 13.2505 10.0837 13.2505 10.6276V13.682V17.4896C13.2505 18.0335 12.7678 18.4938 12.1974 18.4938H9.47702C9.21375 18.4938 8.95049 18.703 8.95049 18.9958V19.5398Z" fill="#7A7171"/>
<path d="M12.8121 18.285C12.7682 18.285 12.6805 18.2432 12.6366 18.2013L4.12441 10.126C4.03666 10.0423 4.03666 9.87496 4.12441 9.79128C4.21216 9.7076 4.38767 9.7076 4.47543 9.79128L12.9437 17.8666C13.0315 17.9503 13.0315 18.1176 12.9437 18.2013C12.8998 18.2432 12.856 18.285 12.8121 18.285Z" fill="#7A7171"/>
<path d="M8.03102 15.1884C7.98715 15.1884 7.89939 15.1466 7.85551 15.1047L7.63613 14.8955C7.54837 14.8119 7.54837 14.6445 7.63613 14.5608C7.72388 14.4771 7.89939 14.4771 7.98715 14.5608L8.20653 14.77C8.29429 14.8537 8.29429 15.0211 8.20653 15.1047C8.16265 15.1884 8.0749 15.1884 8.03102 15.1884Z" fill="#7A7171"/>
<path d="M10.1815 17.2389C10.1376 17.2389 10.0498 17.197 10.0059 17.1552L8.558 15.7744C8.47025 15.6908 8.47025 15.5234 8.558 15.4397C8.64576 15.356 8.82127 15.356 8.90902 15.4397L10.357 16.8205C10.4447 16.9041 10.4447 17.0715 10.357 17.1552C10.3131 17.2389 10.2692 17.2389 10.1815 17.2389Z" fill="#7A7171"/>
<path d="M9.47451 18.4944C9.43064 18.4944 9.34288 18.4526 9.29901 18.4107L3.50722 12.8877C3.41947 12.804 3.41947 12.6367 3.50722 12.553C3.59498 12.4693 3.77048 12.4693 3.85824 12.553L9.65002 18.1178C9.73778 18.2015 9.73778 18.3689 9.65002 18.4526C9.60615 18.4944 9.51839 18.4944 9.47451 18.4944Z" fill="#7A7171"/>
<path d="M2.67519 12.0505C2.63131 12.0505 2.54356 12.0086 2.49968 11.9668L0.788472 10.335C0.700718 10.2513 0.700718 10.0839 0.788472 10.0003C0.876226 9.91658 1.05173 9.91658 1.13949 10.0003L2.8507 11.6321C2.93845 11.7157 2.93845 11.8831 2.8507 11.9668C2.80682 12.0086 2.76294 12.0505 2.67519 12.0505Z" fill="#7A7171"/>
<path d="M8.73155 20.0002C8.68767 20.0002 8.59992 19.9583 8.55604 19.9165L0.0877543 11.8412C0.0438771 11.7994 0 11.7157 0 11.6738V10.8789C0 10.3768 0.438771 9.95835 0.965297 9.95835H3.68568C4.0367 9.95835 4.29996 9.7073 4.29996 9.37258V5.56505V5.39768C4.29996 5.27216 4.38771 5.18848 4.51935 5.18848C4.65098 5.18848 4.73873 5.27216 4.73873 5.39768V9.37258C4.73873 9.91651 4.25608 10.3768 3.68568 10.3768H0.965297C0.702034 10.3768 0.438771 10.586 0.438771 10.8789V11.5483L8.86318 19.5818C8.95094 19.6655 8.95094 19.8328 8.86318 19.9165C8.86318 19.9583 8.77543 20.0002 8.73155 20.0002Z" fill="#7A7171"/>
<path d="M8.73414 8.53626C8.69027 8.53626 8.60251 8.49442 8.55863 8.45258L2.6791 2.88772C2.59134 2.80404 2.59134 2.63668 2.6791 2.553C2.76685 2.46931 2.94236 2.46931 3.03011 2.553L8.90965 8.15969C8.99741 8.24337 8.99741 8.41074 8.90965 8.49442C8.86577 8.53626 8.77802 8.53626 8.73414 8.53626Z" fill="#7A7171"/>
<path d="M1.88822 2.00878C1.80046 2.00878 1.75658 2.00878 1.71271 1.96694L0.0892532 0.376982C0.00149893 0.2933 0.00149893 0.125936 0.0892532 0.0422537C0.177008 -0.0414283 0.352516 -0.0414283 0.44027 0.0422537L2.06372 1.59037C2.15148 1.67405 2.15148 1.84142 2.06372 1.9251C1.97597 2.00878 1.93209 2.00878 1.88822 2.00878Z" fill="#7A7171"/>
<path d="M8.95094 9.83264C8.90706 9.83264 8.81931 9.79079 8.77543 9.74895L0.30714 1.67364C0.0877543 1.50628 0 1.25523 0 1.00418V0.209205C0 0.083682 0.0877543 0 0.219386 0H10.3989C10.4428 0 10.5305 0.041841 10.5744 0.083682L19.0427 8.159C19.1304 8.24268 19.1304 8.41004 19.0427 8.49372C18.9549 8.57741 18.7794 8.57741 18.6917 8.49372L10.3111 0.460251H0.482649V1.00418C0.482649 1.12971 0.526526 1.25523 0.61428 1.33891L9.08257 9.41423C9.17032 9.49791 9.17032 9.66527 9.08257 9.74895C9.08257 9.79079 8.99481 9.83264 8.95094 9.83264Z" fill="#7A7171"/>
<path d="M11.0581 2.51131C11.0143 2.51131 10.9265 2.46947 10.8826 2.42763L9.87345 1.46529H6.58267C6.45104 1.46529 6.36328 1.3816 6.36328 1.25608C6.36328 1.13056 6.45104 1.04688 6.58267 1.04688H10.0051C10.049 1.04688 10.1367 1.08872 10.1806 1.13056L11.2775 2.17658C11.3653 2.26026 11.3653 2.42763 11.2775 2.51131C11.1898 2.51131 11.102 2.51131 11.0581 2.51131Z" fill="#7A7171"/>
<path d="M18.6491 18.6616C18.6052 18.6616 18.5175 18.6198 18.4736 18.5779L14.4369 14.7285C14.3492 14.6449 14.3492 14.4775 14.4369 14.3938C14.5247 14.3101 14.7002 14.3101 14.7879 14.3938L18.8246 18.2432C18.9124 18.3269 18.9124 18.4942 18.8246 18.5779C18.7807 18.6616 18.7369 18.6616 18.6491 18.6616Z" fill="#7A7171"/>
</g>
<defs>
<clipPath id="clip0_904_159">
<rect width="19.1304" height="20" fill="white"/>
</clipPath>
</defs>
</svg>
