<svg width="23" height="16" viewBox="0 0 23 16" fill="none" xmlns="http://www.w3.org/2000/svg">
<g clip-path="url(#clip0_904_154)">
<path d="M22.4479 16H19.9225C19.8875 16 19.8875 16 19.8524 16C19.8524 16 19.8173 16 19.8173 15.9652L18.0636 13.8783H16.1345V15.8609C16.1345 15.9304 16.0643 16 15.9942 16H13.4688C13.4337 16 13.4337 16 13.3986 16C13.3986 16 13.3635 16 13.3635 15.9652C13.3635 15.9652 13.3635 15.9652 13.3635 15.9304L11.9605 13.8435H9.32992V15.8261C9.32992 15.8957 9.25977 15.9652 9.18962 15.9652H6.66423C6.62916 15.9652 6.62916 15.9652 6.59408 15.9652C6.59408 15.9652 6.55901 15.9652 6.55901 15.9304C6.55901 15.9304 6.55901 15.9304 6.55901 15.8957L0.0350749 5.94783C0 5.91304 0 5.87826 0 5.84348V0.13913C0 0.13913 0 0.13913 0 0.104348C0 0.104348 0 0.104348 0 0.0695652C0 0.0695652 0 0.0695652 0 0.0347826C0 0.0347826 0 0.0347826 0.0350749 0.0347826C0.0350749 0.0347826 0.0350749 0.0347826 0.0701498 0.0347826C0.0701498 0.0347826 0.0701498 0.0347826 0.105225 0.0347826H2.27987C2.31494 0.0347826 2.35002 0.0347826 2.38509 0.0695652L3.05152 0.695652H7.2605L6.83961 0.243478C6.80453 0.208696 6.80453 0.13913 6.80453 0.0695652C6.87468 0.0347826 6.90975 0 6.9799 0H9.11947C9.15455 0 9.18962 0 9.2247 0.0347826L9.89112 0.695652H13.7494L13.3285 0.243478C13.2934 0.208696 13.2934 0.13913 13.2934 0.0695652C13.3285 0.0347826 13.3986 0 13.4688 0H15.6434C15.6785 0 15.7136 0 15.7486 0.0347826L22.5882 7.16522L22.6233 7.2V7.23478V15.7913C22.5882 15.9304 22.5181 16 22.4479 16ZM13.7844 0.313043L14.2053 0.765217C14.2404 0.8 14.2404 0.869565 14.2404 0.93913C14.2053 1.0087 14.1703 1.04348 14.1001 1.04348H9.82097C9.7859 1.04348 9.75082 1.04348 9.71575 1.0087L9.0844 0.347826H7.33065L7.75155 0.8C7.78663 0.834783 7.78663 0.904348 7.78663 0.973913C7.75155 1.04348 7.71648 1.07826 7.64633 1.07826H2.98137C2.94629 1.07826 2.91122 1.07826 2.87614 1.04348L2.24479 0.313043H0.491049L3.05152 3.13043L6.69931 7.13043H7.19035H7.33065H7.47095H8.76872L7.47095 5.77391L7.33065 5.6L7.29558 5.56522C7.2605 5.53043 7.22543 5.46087 7.2605 5.3913C7.29558 5.32174 7.33065 5.28696 7.4008 5.28696H11.8202C11.8553 5.28696 11.8904 5.28696 11.8904 5.32174C11.8904 5.32174 11.9255 5.32174 11.9255 5.35652L12.1359 5.6L13.5038 7.09565H14.3807H14.521H14.6613H15.5733L14.6613 6.12174L14.521 5.94783L14.3807 5.84348L14.1703 5.6C14.1352 5.56522 14.1001 5.49565 14.1352 5.42609C14.1703 5.35652 14.2053 5.32174 14.2755 5.32174H14.5561H17.9934H18.1337H18.3091C18.3442 5.32174 18.3792 5.35652 18.4143 5.35652L19.9927 7.09565H22.0972L15.5382 0.313043H13.7844ZM0.315674 5.8087L6.45378 15.3043V7.33913L0.315674 0.556522V5.8087ZM6.76946 15.687H8.97917V13.8435V13.7043V13.5652V7.44348H7.50603H7.36573H7.22543H6.80453V15.687H6.76946ZM12.171 13.6696L13.2934 15.3391V7.33913L12.171 6.08696V13.6696ZM22.2726 7.44348H20.0628V15.687H22.2726V7.44348ZM19.7822 7.33913L18.3091 5.70435V13.6348L19.7822 15.4087V7.33913ZM17.9583 5.66957H14.6613V5.73913L16.0643 7.2L16.0994 7.23478V7.26957V13.5304H17.9583V5.66957ZM15.8188 13.8435V13.7043V13.5652V7.44348H14.6964H14.5561H14.3807H13.6091V15.687H15.8188V13.8435ZM11.8553 5.77391L11.7501 5.66957H7.78663L9.25977 7.2L9.29485 7.23478V7.26957V13.5304H11.8553V5.77391Z" fill="#D92728"/>
<path d="M17.0124 4.24321H15.2587H12.9087C12.8736 4.24321 12.8385 4.24321 12.8034 4.20842L11.0848 2.43451C11.0497 2.39973 11.0146 2.33016 11.0497 2.2606C11.0848 2.19103 11.1198 2.15625 11.19 2.15625H15.2587H15.399C15.434 2.15625 15.4691 2.19103 15.5042 2.19103L17.1176 3.96495C17.1527 3.99973 17.1527 4.06929 17.1527 4.13886C17.1176 4.20842 17.0826 4.24321 17.0124 4.24321ZM15.0833 3.93016V2.43451H11.5407L12.9437 3.89538H15.0833V3.93016ZM15.399 2.53886V3.93016H16.6617L15.399 2.53886Z" fill="#D92728"/>
<path d="M10.5595 4.24381H8.80575H6.10498C6.06991 4.24381 6.03483 4.24381 5.99976 4.20903L4.28109 2.43511C4.21094 2.36555 4.21094 2.29598 4.21094 2.22642C4.24601 2.15685 4.28109 2.12207 4.35124 2.12207H4.80721H8.77067H8.91097C8.94605 2.12207 8.98112 2.15685 9.0162 2.15685L10.6296 3.93077C10.6647 3.96555 10.6647 4.03511 10.6647 4.10468C10.6647 4.20903 10.5946 4.24381 10.5595 4.24381ZM8.63037 3.93077V2.43511H4.98259V2.71337L6.14006 3.93077H8.63037ZM8.94605 2.53946V3.93077H10.2087L8.94605 2.53946Z" fill="#D92728"/>
</g>
<defs>
<clipPath id="clip0_904_154">
<rect width="22.5882" height="16" fill="white"/>
</clipPath>
</defs>
</svg>
