<svg xmlns="http://www.w3.org/2000/svg" viewBox="0 0 64.43 45.98"><g id="Layer_2" data-name="Layer 2"><g id="Layer_3" data-name="Layer 3"><path d="M64,46H56.81a.58.58,0,0,1-.18,0l0,0-.11-.08h0l-5-6H46v5.71a.44.44,0,0,1-.44.44H38.36l-.15,0,0,0a.32.32,0,0,1-.12-.08s0,0,0,0l0,0-4-6H26.5v5.71a.44.44,0,0,1-.44.44H18.89a.57.57,0,0,1-.15,0l0,0a.42.42,0,0,1-.12-.08,0,0,0,0,1,0,0s0,0-.05-.06L.07,17.08A.44.44,0,0,1,0,16.84V.41A.15.15,0,0,0,0,.34s0,0,0-.06a0,0,0,0,1,0,0s0,0,0,0l0-.06L.14.12l0,0,.07,0,0,0h0L.37,0H6.59a.45.45,0,0,1,.32.14L8.72,2.05h12L19.59.73a.43.43,0,0,1-.08-.47.44.44,0,0,1,.4-.26h6.15a.43.43,0,0,1,.32.14L28.2,2.05h11L38,.73A.43.43,0,0,1,38,.26a.44.44,0,0,1,.4-.26h6.15a.43.43,0,0,1,.32.14l19.48,20.5h0a.26.26,0,0,1,.07.11s0,0,0,0a.36.36,0,0,1,0,.11s0,0,0,0v24.6A.44.44,0,0,1,64,46ZM39.35.88,40.53,2.2a.43.43,0,0,1,.08.47.44.44,0,0,1-.4.26H28a.45.45,0,0,1-.32-.14L25.87.88h-5L22.08,2.2a.43.43,0,0,1,.08.47.44.44,0,0,1-.4.26H8.54a.43.43,0,0,1-.32-.14L6.4.88h-5L8.7,9,19.08,20.5h6l-3.66-3.86-.44-.46-.06-.06a.44.44,0,0,1,.31-.75H33.75a.45.45,0,0,1,.25.09l.08.06.62.69,3.86,4.29h6l-2.64-2.78-.44-.46L41,16.8l-.65-.68a.45.45,0,0,1-.08-.48.44.44,0,0,1,.4-.27H52.2a.48.48,0,0,1,.33.15l4.48,5h6L44.32.88ZM.88,16.71,18.45,44V21.11L.88,1.58ZM19.33,45.1h6.29V21.38H19.33ZM34.7,39.26l3.22,4.83v-23L34.7,17.53ZM63.55,21.38h-6.3V45.1h6.3Zm-7.18-.27-4.24-4.72V39.23l4.24,5.1Zm-5.12-4.86H41.88v.2l4,4.19h0a.26.26,0,0,1,.07.11l0,0a.36.36,0,0,1,0,.11s0,0,0,0V39h5.27ZM45.1,39.83V21.38H38.8V45.1h6.3ZM33.82,16.55l-.26-.3H22.22l4.15,4.38h0a.36.36,0,0,1,.08.12s0,0,0,0a.35.35,0,0,1,0,.11V39h7.32Z"/><path d="M48.51,12.15H36.77a.44.44,0,0,1-.31-.13L31.59,6.89a.44.44,0,0,1,.32-.74h12a.41.41,0,0,1,.32.15l4.62,5.12a.45.45,0,0,1,.07.47A.44.44,0,0,1,48.51,12.15Zm-5.46-.88V7H32.93l4,4.24Zm.88-4v4h3.6Z"/><path d="M30.06,12.15H17.3A.46.46,0,0,1,17,12L12.11,6.89a.44.44,0,0,1,.32-.74h13a.41.41,0,0,1,.32.15l4.62,5.12a.45.45,0,0,1,.07.47A.44.44,0,0,1,30.06,12.15Zm-5.46-.88V7H14.2v.79l3.29,3.45Zm.88-4v4h3.6Z"/></g></g></svg>