<svg xmlns="http://www.w3.org/2000/svg" viewBox="0 0 43.65 47.79"><defs><style>.cls-1{fill:#b50000;}</style></defs><g id="Layer_2" data-name="Layer 2"><g id="Layer_1-2" data-name="Layer 1"><path class="cls-1" d="M43.11,47.79H19.88a.55.55,0,0,1-.54-.55V45.38a2.25,2.25,0,0,1,2.25-2.25h6.22a1.36,1.36,0,0,0,1.36-1.36V25.35A1.37,1.37,0,0,0,27.81,24H21.59a2.25,2.25,0,0,1-2.25-2.25V19.88a.54.54,0,0,1,.54-.54H43.11a.54.54,0,0,1,.54.54v1.86A2.25,2.25,0,0,1,41.4,24H35.18a1.36,1.36,0,0,0-1.36,1.36V41.77a1.36,1.36,0,0,0,1.36,1.36H41.4a2.25,2.25,0,0,1,2.25,2.25v1.86A.55.55,0,0,1,43.11,47.79ZM20.42,46.7H42.56V45.38a1.16,1.16,0,0,0-1.16-1.16H35.18a2.45,2.45,0,0,1-2.44-2.45V32.7a.06.06,0,0,1,0,0V25.35a2.45,2.45,0,0,1,2.45-2.44H41.4a1.17,1.17,0,0,0,1.16-1.17V20.42H20.42v1.32a1.18,1.18,0,0,0,1.17,1.17h6.22a2.44,2.44,0,0,1,2.44,2.44V41.77a2.45,2.45,0,0,1-2.44,2.45H21.59a1.17,1.17,0,0,0-1.17,1.16Z"/><path class="cls-1" d="M29.15,43.66a.51.51,0,0,1-.38-.16L9.43,24.16a.54.54,0,0,1,0-.76.53.53,0,0,1,.77,0L29.54,42.73a.55.55,0,0,1-.39.93Z"/><path class="cls-1" d="M18.29,36.31a.51.51,0,0,1-.38-.16l-.53-.52a.54.54,0,0,1,.77-.77l.52.52a.54.54,0,0,1-.38.93Z"/><path class="cls-1" d="M23.22,41.24a.51.51,0,0,1-.38-.16L19.5,37.74a.53.53,0,0,1,0-.77.54.54,0,0,1,.76,0l3.34,3.34a.53.53,0,0,1,0,.77A.51.51,0,0,1,23.22,41.24Z"/><path class="cls-1" d="M21.59,44.22a.59.59,0,0,1-.39-.16L8,30.85a.54.54,0,1,1,.77-.77L22,43.29a.55.55,0,0,1-.38.93Z"/><path class="cls-1" d="M6.14,28.77a.54.54,0,0,1-.38-.16L1.87,24.72a.53.53,0,0,1,0-.77.54.54,0,0,1,.76,0l3.9,3.9a.54.54,0,0,1,0,.76A.54.54,0,0,1,6.14,28.77Z"/><path class="cls-1" d="M19.88,47.79a.55.55,0,0,1-.38-.16L.16,28.29A.55.55,0,0,1,0,27.9V26a2.25,2.25,0,0,1,2.25-2.25H8.47a1.36,1.36,0,0,0,1.36-1.36V12.94a.54.54,0,0,1,.54-.54h0a.55.55,0,0,1,.55.54v9.49a2.45,2.45,0,0,1-2.45,2.45H2.25A1.16,1.16,0,0,0,1.09,26v1.64L20.26,46.86a.53.53,0,0,1,0,.77A.55.55,0,0,1,19.88,47.79Z"/><path class="cls-1" d="M19.88,20.42a.51.51,0,0,1-.38-.16L6.12,6.89a.54.54,0,0,1,.77-.77L20.26,19.5a.52.52,0,0,1,0,.76A.51.51,0,0,1,19.88,20.42Z"/><path class="cls-1" d="M4.27,4.81a.51.51,0,0,1-.38-.16L.16.93a.55.55,0,0,1,0-.77.55.55,0,0,1,.77,0L4.66,3.89a.54.54,0,0,1,0,.76A.54.54,0,0,1,4.27,4.81Z"/><path class="cls-1" d="M20.38,23.49a.51.51,0,0,1-.38-.16L.66,4A2.25,2.25,0,0,1,0,2.41V.54A.54.54,0,0,1,.54,0H23.77a.55.55,0,0,1,.38.16L43.49,19.5a.54.54,0,0,1,0,.76.53.53,0,0,1-.77,0L23.54,1.09H1.09V2.41a1.15,1.15,0,0,0,.34.82L20.76,22.57a.52.52,0,0,1,0,.76A.51.51,0,0,1,20.38,23.49Z"/><path class="cls-1" d="M25.21,6a.51.51,0,0,1-.38-.16L22.51,3.57H15A.54.54,0,0,1,14.44,3,.55.55,0,0,1,15,2.48h7.76a.55.55,0,0,1,.38.16l2.47,2.47a.53.53,0,0,1,0,.77A.51.51,0,0,1,25.21,6Z"/><path class="cls-1" d="M42.51,44.63a.51.51,0,0,1-.38-.16l-9.24-9.23a.54.54,0,0,1,.77-.77L42.9,43.7a.55.55,0,0,1-.39.93Z"/></g></g></svg>