<svg xmlns="http://www.w3.org/2000/svg" viewBox="0 0 57.02 44.83"><defs><style>.cls-1{fill:#b50000;}</style></defs><g id="Layer_2" data-name="Layer 2"><g id="Layer_1-2" data-name="Layer 1"><path class="cls-1" d="M55.08,44.83H30.88a1.94,1.94,0,0,1-1.94-1.94v-12a1.94,1.94,0,0,1,1.94-1.95H38a.55.55,0,0,1,.54.55v3.57a.54.54,0,0,1-.54.54H33.59v6.58H52.37V33.59H47.94a.54.54,0,0,1-.54-.54V29.48a.55.55,0,0,1,.54-.55h7.14A1.94,1.94,0,0,1,57,30.88v12A1.94,1.94,0,0,1,55.08,44.83ZM30.88,30a.85.85,0,0,0-.86.86v12a.85.85,0,0,0,.86.85h24.2a.85.85,0,0,0,.85-.85v-12a.85.85,0,0,0-.85-.86H48.49V32.5h4.42a.55.55,0,0,1,.54.55v7.67a.54.54,0,0,1-.54.54H33.05a.55.55,0,0,1-.55-.54V33.05a.55.55,0,0,1,.55-.55h4.42V30Z"/><path class="cls-1" d="M26.68,12.33H20.32a.55.55,0,0,1-.55-.55.55.55,0,0,1,.55-.54h6.36a.54.54,0,0,1,.54.54A.55.55,0,0,1,26.68,12.33Z"/><path class="cls-1" d="M29.88,44.42a.54.54,0,0,1-.38-.16h0L.57,15.33A1.93,1.93,0,0,1,0,14v-12A1.9,1.9,0,0,1,.57.57,1.9,1.9,0,0,1,1.94,0H9.08a.55.55,0,0,1,.38.16L38.4,29.09a.55.55,0,0,1,.11.6A.54.54,0,0,1,38,30H30.88a.85.85,0,0,0-.86.86v12a.84.84,0,0,0,.25.6h0l0,0h0a.56.56,0,0,1,0,.73h0A.59.59,0,0,1,29.88,44.42ZM1.94,1.09a.8.8,0,0,0-.6.25.8.8,0,0,0-.25.6V14a.86.86,0,0,0,.25.6l27.6,27.6V30.88a1.93,1.93,0,0,1,1.94-1.95H36.7L8.85,1.09Z"/><path class="cls-1" d="M13.82,9.34a.51.51,0,0,1-.38-.16L8.08,3.83a.55.55,0,0,1,0-.77.53.53,0,0,1,.77,0L14.2,8.41a.53.53,0,0,1,0,.77A.51.51,0,0,1,13.82,9.34Z"/><path class="cls-1" d="M18,29.05a.54.54,0,0,1-.39-.16L17,28.2a.53.53,0,0,1,0-.77.54.54,0,0,1,.76,0l.69.69a.55.55,0,0,1,0,.77A.51.51,0,0,1,18,29.05Z"/><path class="cls-1" d="M25,36a.54.54,0,0,1-.39-.16l-5.3-5.3a.54.54,0,0,1,.77-.77l5.3,5.3a.55.55,0,0,1,0,.77A.51.51,0,0,1,25,36Z"/><path class="cls-1" d="M47.94,33.59a.52.52,0,0,1-.38-.16L18.62,4.5a.56.56,0,0,1-.15-.39V.54a.54.54,0,1,1,1.08,0V3.89L48.33,32.66a.55.55,0,0,1-.39.93Z"/><path class="cls-1" d="M56.07,30.43a.54.54,0,0,1-.39-.16h0a.84.84,0,0,0-.6-.25H47.94a.55.55,0,0,1-.38-.16L30.62,12.92a.54.54,0,0,1,.77-.77L48.17,28.93h6.18L26.75,1.34a.82.82,0,0,0-.6-.25H20.32l8.84,8.83a.54.54,0,0,1-.77.77L18.62.93a.55.55,0,0,1-.11-.6A.54.54,0,0,1,19,0h7.14a1.93,1.93,0,0,1,1.37.57L56.44,29.5h0a.55.55,0,0,1,0,.77A.52.52,0,0,1,56.07,30.43Z"/><path class="cls-1" d="M52.91,41.26a.54.54,0,0,1-.39-.16L49.3,37.87a.54.54,0,1,1,.76-.76l3.23,3.22a.55.55,0,0,1,0,.77A.51.51,0,0,1,52.91,41.26Z"/><path class="cls-1" d="M29.89,30.43a.54.54,0,0,1-.39-.16L6.75,7.52a.54.54,0,0,1,.77-.77L30.27,29.5a.55.55,0,0,1,0,.77A.51.51,0,0,1,29.89,30.43Z"/><path class="cls-1" d="M4.9,5.44a.51.51,0,0,1-.38-.16L.57,1.34A.54.54,0,0,1,1.34.57l3.94,4a.52.52,0,0,1,0,.76A.51.51,0,0,1,4.9,5.44Z"/></g></g></svg>