<svg xmlns="http://www.w3.org/2000/svg" viewBox="0 0 116.39 125.75"><defs><style>.cls-1{fill:#d92728;}.cls-2{fill:#0b0e11;}</style></defs><g id="Layer_2" data-name="Layer 2"><g id="Icons"><path class="cls-1" d="M56.23,68.77l-1.47-2.61,44.51-25a1.52,1.52,0,0,1,1.14-.14,1.49,1.49,0,0,1,.9.71L103.7,46l8.9-18.36-20.31-2,2.38,4.25a1.49,1.49,0,0,1-.57,2L69.56,45.74l-1.47-2.62,23.23-13-3-5.45a1.47,1.47,0,0,1,0-1.55,1.5,1.5,0,0,1,1.4-.68L115,24.87a1.5,1.5,0,0,1,1.2,2.15L105.15,49.91a1.5,1.5,0,0,1-1.31.84,1.44,1.44,0,0,1-1.35-.76l-3.06-5.45Z"/><rect class="cls-1" x="54.44" y="48.78" width="7.93" height="3" transform="translate(-17.14 35.01) rotate(-29.3)"/><path class="cls-2" d="M25.57,123.84c-.16-1.37-.77-3.92-1.74-5a4.68,4.68,0,0,0-1.8-.16c-1.33,0-3,0-4.13-1.13a4.31,4.31,0,0,1-1-3.4c.11-1.92.69-8.47,1.43-13.24.36-2.25,1.33-6.7,2-9.94.32-1.46.59-2.67.71-3.28l2.94.58c-.12.62-.39,1.85-.72,3.34-.69,3.2-1.65,7.6-2,9.77-.73,4.66-1.3,11.07-1.41,12.95,0,.89.14,1.12.17,1.14.22.24,1.24.22,1.91.21,1.31,0,2.94,0,4,1.1,2,2.09,2.49,6.21,2.54,6.67Z"/><path class="cls-2" d="M31.77,24.28H28.52V19.09a1.62,1.62,0,0,1,2.18-1.53,2.67,2.67,0,0,0,2.32,0c1-.62,1.36-2.26,1.45-3.14a25.47,25.47,0,0,0-.3-6.86L37.37,7a28.65,28.65,0,0,1,.33,7.73c-.08.93-.55,4.07-2.94,5.58a5,5,0,0,1-3,.75Z"/><path class="cls-2" d="M10.8,123.67h-3a21.77,21.77,0,0,1,1.52-7.49c.09-.27.18-.52.26-.77.7-2.11.56-5.41.4-8.9-.07-1.57-.14-3.2-.14-4.81,0-4.59.11-9,1.5-12.58l.05-.11a14.53,14.53,0,0,0,.45-3.23h3a15.67,15.67,0,0,1-.72,4.47c-1.18,3.08-1.28,7.34-1.28,11.45,0,1.55.07,3.14.14,4.68.17,3.77.32,7.34-.56,10-.08.26-.17.52-.27.8A19.08,19.08,0,0,0,10.8,123.67Z"/><path class="cls-2" d="M14,58.79c-.53-1.28-3.34-9.13-4-11.54a10.38,10.38,0,0,1,.1-3.57,1.31,1.31,0,0,1,.06-.27c0-.12,3.94-11.52,4.68-13.81a8.12,8.12,0,0,1,4.19-5.24,5.33,5.33,0,0,1,4.59.3l-1.37,2.67a2.39,2.39,0,0,0-2.07-.2,5.45,5.45,0,0,0-2.49,3.39c-.7,2.21-4.18,12.37-4.64,13.73A9.45,9.45,0,0,0,13,46.51c.57,2.24,3.37,10,3.82,11.13Z"/><path class="cls-2" d="M37.89,109.46h-3a12.86,12.86,0,0,1,1.14-5,6.67,6.67,0,0,0,.6-2.1c0-2.52-.14-5.48-.33-8.91-.06-1.16-.12-2.36-.19-3.62a28.61,28.61,0,0,1,1.32-10.54L33.88,77.1l1.54-2.57L40,77.3a1.5,1.5,0,0,1,.63,1.83,24.8,24.8,0,0,0-1.55,10.5c.06,1.25.13,2.45.19,3.6.19,3.48.35,6.49.33,9.11a8.88,8.88,0,0,1-.81,3.17A10.07,10.07,0,0,0,37.89,109.46Z"/><path class="cls-2" d="M52.61,109.64a9,9,0,0,0-1.68-4.31c-.18-.2-1.27-.18-1.8-.17-1.33,0-3,.06-4.13-1.12a4.31,4.31,0,0,1-1-3.4c0-.41.6-10.19,1.44-15.5.16-1.06.37-2.16.57-3.24a36,36,0,0,0,.78-5.58c0-1.19-1.62-3.25-3.15-4.58-.58-.5-1.53-1.36-2.68-2.4-3.39-3.06-9-8.18-11.58-9.85A1.49,1.49,0,0,1,28.73,58c.87-6.53,2.53-19.56,2.53-22.17,0-4.54-2.05-11.22-3-12.06a11.49,11.49,0,0,0-5.9-1.38,1.49,1.49,0,0,1-1.51-2,13.14,13.14,0,0,0,.9-3.61,13.27,13.27,0,0,0-1.11-4.26c-.13-.34-.27-.7-.42-1.11a7.71,7.71,0,0,1,.57-6.77A10,10,0,0,1,28,.08C31-.33,33.53.9,35.4,1.79a11.42,11.42,0,0,0,1.54.67A2.13,2.13,0,0,1,38.5,4.18C38.75,5.84,37,7.59,36.33,8l-.12.07c-.13.07-.32.21-.57.38C34,9.63,32.05,10.84,30.18,11l-.83.67L27.46,9.34l1.22-1a1.54,1.54,0,0,1,1-.34C31,8.11,33,6.63,33.94,6l.74-.48a2.9,2.9,0,0,0,.5-.53q-.51-.23-1.08-.51c-1.61-.77-3.6-1.72-5.66-1.44a7,7,0,0,0-5,3.15,4.68,4.68,0,0,0-.34,4.19c.14.39.28.75.41,1.08a16.35,16.35,0,0,1,1.3,5,9.28,9.28,0,0,1-.44,3A14,14,0,0,1,30,21.35c2.25,1.52,4.23,10.13,4.23,14.52,0,3.06-1.92,17.8-2.44,21.66,2.9,2.12,7.81,6.56,11.16,9.58,1.13,1,2.06,1.87,2.64,2.37,1,.85,4.18,3.86,4.18,6.84A37,37,0,0,1,49,82.45c-.2,1-.4,2.12-.56,3.15C47.6,90.77,47,100.71,47,100.81c0,.9.15,1.12.17,1.15.23.23,1.24.21,1.91.2,1.32,0,2.94,0,4,1.11,2,2.09,2.43,5.62,2.48,6l-3,.35,1.49-.17Z"/><rect class="cls-2" x="38.97" y="100.75" width="6.25" height="3"/><rect class="cls-2" x="11.97" y="113.75" width="6.17" height="3"/><path class="cls-1" d="M33,125.75H6v-3h25.5v-12.5a1.5,1.5,0,0,1,1.5-1.5h25.5V97.25a1.5,1.5,0,0,1,1.5-1.5h25.5V83.25a1.5,1.5,0,0,1,1.5-1.5h28v3H88.47v12.5a1.5,1.5,0,0,1-1.5,1.5H61.47v11.5a1.5,1.5,0,0,1-1.5,1.5H34.47v12.5A1.5,1.5,0,0,1,33,125.75Z"/><path class="cls-2" d="M26,89.93a1.49,1.49,0,0,1-.36-.05L1.14,83.75a1.53,1.53,0,0,1-.93-.68A1.56,1.56,0,0,1,0,81.93L4,66.06a1.5,1.5,0,0,1,.69-.92A1.45,1.45,0,0,1,5.83,65L30.36,71.1a1.54,1.54,0,0,1,.92.68,1.56,1.56,0,0,1,.17,1.14l-4,15.87A1.51,1.51,0,0,1,26,89.93ZM3.32,81.2l21.61,5.41,3.24-13L6.56,68.24Z"/><path class="cls-2" d="M17.29,65.17l-2.71-.5.9-4.91a1.39,1.39,0,0,1,1-1.09,1.37,1.37,0,0,1,1.41.47,4.91,4.91,0,0,0,5,1.53,4.94,4.94,0,0,0-1.13-2.85,1.65,1.65,0,0,1-.22-.36,42.45,42.45,0,0,1-1.81-7.3c-.42-2.12-.85-4.31-1.3-5.7a1.4,1.4,0,0,1,.09-1.06c.23-.45.69-1.3,1.23-2.33,1.39-2.6,3.48-6.54,3.95-7.59l2.52,1.13c-.5,1.14-2.54,5-4,7.76l-1,1.8c.43,1.49.81,3.42,1.21,5.46A44.59,44.59,0,0,0,24,56.22c.53.7,2.19,3.15,1.45,5.76-.14.49-.52,1.09-2.21,1.44a8.2,8.2,0,0,1-5.5-.82Z"/><rect class="cls-2" x="19.39" y="65.05" width="5.66" height="3" transform="translate(-47.8 71.01) rotate(-75.18)"/><rect class="cls-1" x="56.4" y="74.55" width="34.36" height="3" transform="translate(-27.35 44.24) rotate(-28.45)"/><path class="cls-1" d="M85.82,77l-2.69-1.34,3.44-6.87H78v-3H89a1.49,1.49,0,0,1,1.27.71,1.52,1.52,0,0,1,.07,1.46Z"/><rect class="cls-1" x="39.41" y="34.71" width="20.35" height="3" transform="translate(-11.35 28.72) rotate(-29.13)"/><path class="cls-1" d="M56.14,38.93,54,37.83l2.81-5.62H50.15V29.75h8.6a1.23,1.23,0,0,1,1.1,1.78Z"/></g></g></svg>