<svg xmlns="http://www.w3.org/2000/svg" viewBox="0 0 105.57 102.18"><defs><style>.cls-1{fill:#d92728;}.cls-2{fill:#0b0e11;}</style></defs><g id="Layer_2" data-name="Layer 2"><g id="Icons"><path class="cls-1" d="M90.41,87.18H72.72A3.16,3.16,0,0,1,69.57,84v-7.4a3.12,3.12,0,0,0-1.42-2.55c-9.8-6.61-15.06-21.32-5.51-35.53a11.94,11.94,0,0,1,3.26-3.27c8.76-5.9,18.58-6.73,26.93-2.29A24,24,0,0,1,95,74.08a3.3,3.3,0,0,0-1.41,2.78V84A3.17,3.17,0,0,1,90.41,87.18Zm-8.81-54a25.12,25.12,0,0,0-14,4.59,9.07,9.07,0,0,0-2.45,2.45C56.58,53,61,65.64,69.83,71.59a6.12,6.12,0,0,1,2.74,5V84a.16.16,0,0,0,.15.16H90.41a.16.16,0,0,0,.16-.16V76.86a6.33,6.33,0,0,1,2.73-5.27,21,21,0,0,0-1.88-36A20.7,20.7,0,0,0,81.6,33.17Z"/><path class="cls-2" d="M39.2,101.36c-6,0-11.44-4.83-13.22-7.76-4.83.19-9.44-2.79-12.25-5.82s-4.31-6.46-4.16-9.43A17.1,17.1,0,0,1,0,62.7,17.29,17.29,0,0,1,6.6,49.36,15.93,15.93,0,0,1,2,38.37,15.27,15.27,0,0,1,9.72,25c.38-9.19,6.41-14.38,12.69-15.06A14.78,14.78,0,0,1,36.29,0c7.43,0,15.35,5.24,16.2,13.18h.08V90.76C52.57,97.3,47.45,101.36,39.2,101.36ZM28.36,91.8c.53,1.22,5.31,6.56,10.84,6.56,3.12,0,10.37-.74,10.37-7.6V14.6C49.57,7.66,42.7,3,36.29,3A11.86,11.86,0,0,0,25,11.79a1.52,1.52,0,0,1-1.4,1.08C17.16,13,12.7,18.41,12.7,25.93a1.51,1.51,0,0,1-.87,1.36A12.21,12.21,0,0,0,5,38.37a13.08,13.08,0,0,0,4.93,9.9,1.5,1.5,0,0,1-.07,2.42C7.27,52.44,3,56.34,3,62.7a14.24,14.24,0,0,0,8.79,13.38,1.51,1.51,0,0,1,.87,1.7c-.48,2.22.77,5.27,3.27,8,3.15,3.39,7.36,5.28,10.74,4.79a1.49,1.49,0,0,1,1.69,1.27Z"/><path class="cls-2" d="M91.44,25.93h-3C88.44,18.41,84,13,77.58,12.87a1.51,1.51,0,0,1-1.4-1.08A11.87,11.87,0,0,0,64.85,3,12.16,12.16,0,0,0,52.57,15h-3A15.16,15.16,0,0,1,64.85,0,14.79,14.79,0,0,1,78.73,9.94C85.21,10.64,91.44,16.16,91.44,25.93Z"/><path class="cls-2" d="M38.57,28.1a13.06,13.06,0,0,1-9-3.59l2.06-2.18a10,10,0,0,0,7,2.77c5.34,0,11-6.13,11-11.92h3C52.57,20.71,45.63,28.1,38.57,28.1Z"/><path class="cls-2" d="M25.38,92.15a11.3,11.3,0,0,1,3.31-9l2.12,2.12a8.28,8.28,0,0,0-2.44,6.6Z"/><path class="cls-2" d="M52.57,79.86h-3c0-3.48-3.84-6.17-7.15-6.17a6.22,6.22,0,0,0-5.16,2.75l-2.49-1.68a9.22,9.22,0,0,1,7.65-4.07C47.22,70.69,52.57,74.46,52.57,79.86Z"/><path class="cls-2" d="M22.8,51.1a13.16,13.16,0,0,0-13.13-.33L8.24,48.14a16,16,0,0,1,16.23.47Z"/><path class="cls-2" d="M15.53,79.81a13.62,13.62,0,0,1-4.7-.89l-.14,0,1-2.83.16.06a8.46,8.46,0,0,0,8.52-1l1.8,2.4A10.9,10.9,0,0,1,15.53,79.81Z"/><path class="cls-2" d="M34.26,60.51c-.3-.62-2.81-6.22.17-11.47S44,41.73,51,44L50,46.86c-5.61-1.82-10.71-.38-13,3.66s-.3,8.23-.08,8.7Z"/><path class="cls-2" d="M21.79,34.71l-3-.46a5.94,5.94,0,0,0-1.52-4.87c-1.11-1.11-3.31-2.84-5.62-2l-1-2.84c2.82-1,6,0,8.72,2.74A8.91,8.91,0,0,1,21.79,34.71Z"/><path class="cls-2" d="M65.31,20.5v-3c4.37,0,8.35-4.09,8.35-8.59h3A11.77,11.77,0,0,1,65.31,20.5Z"/><path class="cls-1" d="M86.57,85.18h-3v-19h-4v19h-3V64.68a1.5,1.5,0,0,1,1.5-1.5h7a1.5,1.5,0,0,1,1.5,1.5Z"/><path class="cls-1" d="M89.06,66.18h-4a1.5,1.5,0,0,1-1.5-1.5v-4a5.66,5.66,0,1,1,5.49,5.49Zm-2.49-3h2.49A2.79,2.79,0,0,0,91.85,61a2.69,2.69,0,0,0-.73-2.39,2.65,2.65,0,0,0-2.4-.73,2.78,2.78,0,0,0-2.15,2.79Z"/><path class="cls-1" d="M78.07,66.18h-4a5.67,5.67,0,1,1,5.49-5.49v4A1.5,1.5,0,0,1,78.07,66.18Zm-4.16-8.33A2.66,2.66,0,0,0,71.29,61a2.79,2.79,0,0,0,2.79,2.16h2.49V60.69a2.79,2.79,0,0,0-2.16-2.79A2.92,2.92,0,0,0,73.91,57.85Z"/><path class="cls-1" d="M86.35,95.18H76.79A5.22,5.22,0,0,1,71.57,90V86.43h3V90a2.22,2.22,0,0,0,2.22,2.22h9.56A2.23,2.23,0,0,0,88.57,90V86.12h3V90A5.22,5.22,0,0,1,86.35,95.18Z"/><path class="cls-1" d="M83.35,102.18H79.79A5.22,5.22,0,0,1,74.57,97V94.12h3V97a2.22,2.22,0,0,0,2.22,2.22h3.56A2.23,2.23,0,0,0,85.57,97V94.12h3V97A5.22,5.22,0,0,1,83.35,102.18Z"/></g></g></svg>