<svg xmlns="http://www.w3.org/2000/svg" viewBox="0 0 115.93 100"><defs><style>.cls-1{fill:#0b0e11;}.cls-2{fill:#d92728;}</style></defs><g id="Layer_2" data-name="Layer 2"><g id="Icons"><path class="cls-1" d="M40.5,100H1.5A1.5,1.5,0,0,1,0,98.5V1.5A1.5,1.5,0,0,1,1.5,0h79V3H3V97H40.5Z"/><path class="cls-2" d="M57.88,99.48h-.19L49.2,98.38a1.47,1.47,0,0,1-1-.57,1.51,1.51,0,0,1-.3-1.11l.57-4.5a19.49,19.49,0,0,1-3.07-1.76l-3.59,2.78a1.5,1.5,0,0,1-2.1-.27l-5.24-6.78a1.49,1.49,0,0,1,.27-2.1l3.59-2.78a18.4,18.4,0,0,1-.93-3.42l-4.5-.57a1.55,1.55,0,0,1-1-.57,1.53,1.53,0,0,1-.3-1.11l1.09-8.5a1.5,1.5,0,0,1,1.68-1.29l4.5.57a19.49,19.49,0,0,1,1.76-3.07l-2.78-3.59a1.5,1.5,0,0,1,.27-2.1L44.9,52.4a1.49,1.49,0,0,1,2.1.27l2.78,3.58a19.19,19.19,0,0,1,3.42-.92l.57-4.5a1.5,1.5,0,0,1,1.68-1.3L64,50.62a1.52,1.52,0,0,1,1.3,1.68l-.58,4.5a19.15,19.15,0,0,1,3.08,1.76l3.58-2.78a1.53,1.53,0,0,1,1.11-.3,1.55,1.55,0,0,1,1,.57l5.23,6.78a1.49,1.49,0,0,1-.27,2.1l-3.58,2.78a19.85,19.85,0,0,1,.93,3.42l4.49.57a1.5,1.5,0,0,1,1,.57,1.53,1.53,0,0,1,.3,1.11l-1.09,8.5a1.5,1.5,0,0,1-1.68,1.29l-4.49-.57a20.31,20.31,0,0,1-1.76,3.07l2.77,3.59a1.5,1.5,0,0,1-.27,2.1L68.24,96.6a1.49,1.49,0,0,1-2.1-.27l-2.77-3.58a19.42,19.42,0,0,1-3.42.92l-.58,4.5A1.5,1.5,0,0,1,57.88,99.48ZM51.06,95.6l5.52.7.53-4.14a1.52,1.52,0,0,1,1.32-1.3,16.71,16.71,0,0,0,4.82-1.3A1.49,1.49,0,0,1,65,90l2.56,3.3,4.4-3.4-2.55-3.3a1.5,1.5,0,0,1,0-1.86,16.56,16.56,0,0,0,2.48-4.32,1.49,1.49,0,0,1,1.59-1l4.14.53.7-5.52L74.23,74a1.51,1.51,0,0,1-1.3-1.32,16,16,0,0,0-1.3-4.81,1.5,1.5,0,0,1,.45-1.8l3.3-2.55L72,59.07l-3.3,2.56a1.5,1.5,0,0,1-1.85,0,16.46,16.46,0,0,0-4.33-2.47,1.5,1.5,0,0,1-1-1.59l.53-4.15-5.52-.7L56,56.84a1.51,1.51,0,0,1-1.32,1.3,16.56,16.56,0,0,0-4.81,1.3A1.5,1.5,0,0,1,48.1,59l-2.55-3.3-4.4,3.4,2.55,3.3a1.5,1.5,0,0,1,0,1.86,16.25,16.25,0,0,0-2.47,4.32,1.5,1.5,0,0,1-1.59,1L35.48,69l-.71,5.52,4.14.53a1.5,1.5,0,0,1,1.3,1.32,16.42,16.42,0,0,0,1.31,4.82A1.49,1.49,0,0,1,41.06,83l-3.3,2.55,3.4,4.41,3.31-2.56a1.5,1.5,0,0,1,1.85,0,16.15,16.15,0,0,0,4.33,2.47,1.52,1.52,0,0,1,1,1.59ZM56.56,83A8.49,8.49,0,0,1,50,69.09,8.51,8.51,0,0,1,62,68a8.49,8.49,0,0,1-4.61,15C57.1,83,56.83,83,56.56,83Zm0-14A5.49,5.49,0,1,0,62,74a5.42,5.42,0,0,0-2-3.71A5.48,5.48,0,0,0,56.58,69Z"/><path class="cls-2" d="M97,21a9,9,0,1,1,3.25-17.39,9,9,0,0,1,5.15,11.64A9,9,0,0,1,97,21ZM97,6a6.05,6.05,0,1,0,2.15.41A5.86,5.86,0,0,0,97,6Z"/><path class="cls-2" d="M106.5,100H92.64a1.52,1.52,0,0,1-1.3-.75l-6.92-12a1.49,1.49,0,0,1,0-1.5l6.92-12a1.52,1.52,0,0,1,1.3-.75H106.5a1.51,1.51,0,0,1,1.3.75l6.93,12a1.49,1.49,0,0,1,0,1.5l-6.93,12A1.51,1.51,0,0,1,106.5,100Zm-13-3h12.12l6.07-10.5L105.63,76H93.51L87.45,86.5Z"/><path class="cls-2" d="M99.5,93a6.5,6.5,0,1,1,6.5-6.5A6.51,6.51,0,0,1,99.5,93Zm0-10a3.5,3.5,0,1,0,3.5,3.5A3.5,3.5,0,0,0,99.5,83Z"/><rect class="cls-2" x="56.79" y="11.9" width="34.2" height="3" transform="translate(-0.63 22.64) rotate(-17.35)"/><rect class="cls-2" x="65.06" y="18.39" width="25.79" height="3" transform="translate(-2.45 22.61) rotate(-16.25)"/><path class="cls-2" d="M49.82,44.38l-.38-4.25a1.46,1.46,0,0,1,.23-.93l4.71-7.49,2.54,1.6-4.44,7.06.33,3.74Z"/><path class="cls-2" d="M68.15,45l-3-.39.56-4.32-4.38-6.21,2.46-1.73,4.71,6.69a1.49,1.49,0,0,1,.26,1.06Z"/><path class="cls-2" d="M65.48,34.49h-.07l-12.75-.61a1.5,1.5,0,0,1-1.43-1.57l.39-8a7.89,7.89,0,0,1,8.25-7.49A7.88,7.88,0,0,1,67.36,25L67,33.06A1.51,1.51,0,0,1,65.48,34.49ZM54.3,31l9.75.47.32-6.56a4.9,4.9,0,0,0-4.65-5.11,4.88,4.88,0,0,0-5.11,4.64Z"/><rect class="cls-2" x="103.05" y="15.65" width="3" height="40.87" transform="translate(-1.67 5.27) rotate(-2.86)"/><rect class="cls-2" x="93" y="19.5" width="3" height="37"/><path class="cls-2" d="M112.65,82.93l-2.93-.62,3.09-14.42L104.72,58H95.28l-8.12,9.92.89,5.33-3,.5-1-6a1.52,1.52,0,0,1,.32-1.2l9-11A1.5,1.5,0,0,1,94.57,55h10.86a1.5,1.5,0,0,1,1.16.55l9,11a1.51,1.51,0,0,1,.31,1.26Z"/><path class="cls-2" d="M59.11,27.92a1.49,1.49,0,0,1-1.49-1.37l-.09-1a1.5,1.5,0,1,1,3-.25l.09,1a1.51,1.51,0,0,1-1.37,1.62Z"/><rect class="cls-1" x="12.5" y="20" width="30" height="3"/><rect class="cls-1" x="37.5" y="31" width="5" height="3"/><rect class="cls-1" x="12.5" y="31" width="17" height="3"/><rect class="cls-1" x="12.5" y="42" width="30" height="3"/></g></g></svg>