<svg width="96" height="36" viewBox="0 0 96 36" fill="none" xmlns="http://www.w3.org/2000/svg">
<path d="M50.8753 1.68C50.8753 1.476 50.9411 1.306 51.0399 1.17C51.1715 1.034 51.3032 1 51.5007 1H59.4667C59.6312 1 59.7958 1.068 59.9275 1.17C60.0592 1.306 60.125 1.476 60.125 1.68V34.32C60.125 34.49 60.0592 34.66 59.9275 34.796C59.7958 34.932 59.6312 35 59.4667 35H51.2374C51.007 35 50.8094 34.898 50.6778 34.66L40.3747 15.824V34.32C40.3747 34.524 40.3089 34.694 40.1772 34.83C40.0455 34.966 39.881 35 39.7164 35H31.7833C31.5858 35 31.4213 34.932 31.2896 34.83C31.1579 34.694 31.125 34.524 31.125 34.32V1.68C31.125 1.476 31.1908 1.306 31.2896 1.17C31.4213 1.034 31.5858 1 31.7833 1H40.0126C40.243 1 40.4405 1.102 40.5393 1.306L50.8753 18.476V1.68Z" fill="black"/>
<path d="M88.3391 23.069L95.1199 28.3448C95.2605 28.4483 95.3307 28.6207 95.3659 28.7931C95.401 28.9655 95.3307 29.1379 95.2253 29.2759C93.5038 31.3793 91.3606 33 88.8661 34.2069C86.3716 35.4138 83.7014 36 80.8555 36C78.361 36 75.9719 35.5172 73.6882 34.5862C71.4045 33.6552 69.4721 32.3793 67.7856 30.7586C66.1343 29.1379 64.8344 27.2414 63.8506 25C62.8669 22.7586 62.375 20.4483 62.375 18C62.375 15.5517 62.8669 13.2414 63.8506 11.0345C64.8344 8.82759 66.1343 6.89655 67.7856 5.27586C69.4369 3.65517 71.4045 2.37931 73.6882 1.44828C75.9719 0.482759 78.361 0 80.8555 0C83.7014 0 86.3716 0.586207 88.8661 1.7931C91.3606 3 93.4686 4.62069 95.1902 6.68966C95.2956 6.86207 95.3659 7.03448 95.3307 7.2069C95.2956 7.37931 95.2253 7.55172 95.0848 7.65517L88.3039 12.8966C88.1634 13 87.9877 13.069 87.812 13.0345C87.6364 13.0345 87.4958 12.9655 87.3904 12.8276C86.5824 11.931 85.5986 11.2069 84.4392 10.6207C83.2798 10.0345 82.0852 9.75862 80.8555 9.75862C78.5015 9.75862 76.534 10.5517 74.8827 12.1724C73.2314 13.7931 72.4233 15.7241 72.4233 18C72.4233 20.2759 73.2314 22.2069 74.8827 23.8276C76.534 25.4483 78.5015 26.2414 80.8555 26.2414C82.0852 26.2414 83.2798 25.9655 84.4392 25.3793C85.5986 24.7931 86.6175 24.069 87.4256 23.1379C87.531 23 87.7066 22.931 87.8472 22.931C88.0228 22.8966 88.1985 22.9655 88.3391 23.069Z" fill="black"/>
<path d="M13.4606 36C11.0415 36 8.73074 35.8012 6.52829 35.4036C4.36194 35.006 2.52055 34.4458 1.00411 33.7229V24.6145C2.70108 25.4096 4.56053 26.0602 6.58245 26.5663C8.64047 27.0723 10.518 27.3253 12.2149 27.3253C13.6592 27.3253 14.7604 27.1807 15.5186 26.8916C16.3129 26.6024 16.7101 26.0602 16.7101 25.2651C16.7101 24.3614 16.1144 23.7108 14.9229 23.3133C13.7314 22.8795 12.0164 22.2831 9.77781 21.5241C7.46704 20.7289 5.6437 19.8795 4.30779 18.9759C3.00798 18.0361 2.06923 16.9157 1.49154 15.6145C0.913846 14.2771 0.625 12.6506 0.625 10.7349C0.625 3.57831 5.58954 0 15.5186 0C16.7462 0 18.046 0.0903616 19.418 0.271084C20.8262 0.415663 22.1621 0.614457 23.4258 0.86747C24.7256 1.08434 25.8268 1.33735 26.7294 1.62651V10.7892C24.8881 10.0663 23.1911 9.56024 21.6385 9.27108C20.1221 8.94578 18.732 8.78313 17.4683 8.78313C16.2046 8.78313 15.0492 8.89157 14.0022 9.10843C12.9912 9.28916 12.4857 9.79518 12.4857 10.6265C12.4857 11.3133 12.9371 11.8373 13.8397 12.1988C14.7423 12.5241 16.2588 12.9759 18.389 13.5542C21.2414 14.3494 23.3897 15.2892 24.8339 16.3735C26.3142 17.4578 27.3071 18.741 27.8126 20.2229C28.3542 21.6687 28.625 23.3313 28.625 25.2108C28.625 28.4639 27.3613 31.0843 24.8339 33.0723C22.3065 35.0241 18.5154 36 13.4606 36Z" fill="#B50000"/>
</svg>
