<svg width="120" height="46" viewBox="0 0 120 46" fill="none" xmlns="http://www.w3.org/2000/svg">
<path d="M63.6425 2.12782C63.6425 1.86945 63.7258 1.65415 63.8509 1.4819C64.0177 1.30966 64.1844 1.2666 64.4346 1.2666H74.5234C74.7318 1.2666 74.9402 1.35272 75.107 1.4819C75.2738 1.65415 75.3571 1.86945 75.3571 2.12782V43.4661C75.3571 43.6814 75.2738 43.8967 75.107 44.0689C74.9402 44.2412 74.7318 44.3273 74.5234 44.3273H64.101C63.8092 44.3273 63.5591 44.1981 63.3923 43.8967L50.3436 20.0411V43.4661C50.3436 43.7244 50.2602 43.9397 50.0935 44.112C49.9267 44.2842 49.7182 44.3273 49.5098 44.3273H39.4627C39.2126 44.3273 39.0041 44.2412 38.8374 44.112C38.6706 43.9397 38.6289 43.7244 38.6289 43.4661V2.12782C38.6289 1.86945 38.7123 1.65415 38.8374 1.4819C39.0041 1.30966 39.2126 1.2666 39.4627 1.2666H49.885C50.1768 1.2666 50.427 1.39578 50.552 1.65415L63.6425 23.3998V2.12782Z" fill="#848B96"/>
<path d="M111.09 29.2166L119.678 35.8985C119.856 36.0295 119.945 36.2478 119.99 36.4662C120.034 36.6846 119.945 36.9029 119.812 37.0776C117.631 39.7416 114.917 41.7942 111.758 43.3227C108.598 44.8512 105.217 45.5937 101.612 45.5937C98.4531 45.5937 95.4274 44.9823 92.5351 43.8031C89.6428 42.624 87.1954 41.0081 85.0596 38.9555C82.9682 36.9029 81.3218 34.501 80.0759 31.6623C78.83 28.8236 78.207 25.8976 78.207 22.7968C78.207 19.6961 78.83 16.7701 80.0759 13.9751C81.3218 11.1801 82.9682 8.73442 85.0596 6.68183C87.1509 4.62924 89.6428 3.01337 92.5351 1.83423C95.4274 0.611409 98.4531 0 101.612 0C105.217 0 108.598 0.742425 111.758 2.27095C114.917 3.79947 117.587 5.85206 119.767 8.47239C119.901 8.69075 119.99 8.90911 119.945 9.12747C119.901 9.34583 119.812 9.56419 119.634 9.69521L111.046 16.3334C110.868 16.4644 110.645 16.5517 110.423 16.5081C110.2 16.5081 110.022 16.4207 109.889 16.246C108.865 15.1105 107.62 14.1934 106.151 13.451C104.683 12.7086 103.17 12.3592 101.612 12.3592C98.6311 12.3592 96.1393 13.3637 94.0479 15.4163C91.9566 17.4688 90.9332 19.9145 90.9332 22.7968C90.9332 25.6792 91.9566 28.1248 94.0479 30.1774C96.1393 32.23 98.6311 33.2345 101.612 33.2345C103.17 33.2345 104.683 32.8851 106.151 32.1427C107.62 31.4002 108.91 30.4831 109.933 29.304C110.067 29.1293 110.289 29.0419 110.467 29.0419C110.69 28.9983 110.912 29.0856 111.09 29.2166Z" fill="#848B96"/>
<path d="M16.2562 45.5937C13.1924 45.5937 10.2658 45.3419 7.47646 44.8384C4.7328 44.3348 2.4007 43.6253 0.48014 42.7097V31.174C2.62934 32.1811 4.98431 33.0051 7.54505 33.6459C10.1515 34.2868 12.5294 34.6072 14.6786 34.6072C16.5077 34.6072 17.9024 34.4241 18.8626 34.0579C19.8686 33.6917 20.3716 33.0051 20.3716 31.998C20.3716 30.8535 19.6171 30.0296 18.1081 29.526C16.5991 28.9767 14.4271 28.2214 11.5919 27.2601C8.66538 26.253 6.35613 25.1772 4.66421 24.0328C3.01802 22.8426 1.8291 21.4235 1.09746 19.7756C0.365821 18.0818 0 16.0219 0 13.5957C0 4.5319 6.28754 0 18.8626 0C20.4174 0 22.0636 0.114442 23.8012 0.343326C25.5846 0.526433 27.2765 0.778205 28.877 1.09864C30.5232 1.3733 31.9179 1.69374 33.061 2.05996V13.6644C30.7289 12.7488 28.5797 12.108 26.6135 11.7417C24.6929 11.3298 22.9324 11.1238 21.3319 11.1238C19.7315 11.1238 18.2682 11.2611 16.9421 11.5357C15.6617 11.7646 15.0215 12.4055 15.0215 13.4584C15.0215 14.3281 15.5931 14.9919 16.7363 15.4497C17.8795 15.8617 19.8 16.4339 22.498 17.1663C26.1105 18.1734 28.8312 19.3636 30.6603 20.7369C32.5352 22.1102 33.7927 23.7353 34.4329 25.6121C35.1188 27.4432 35.4617 29.5489 35.4617 31.9293C35.4617 36.0492 33.8613 39.368 30.6603 41.8857C27.4594 44.3577 22.658 45.5937 16.2562 45.5937Z" fill="#848B96"/>
</svg>
