<svg width="95" height="36" viewBox="0 0 95 36" fill="none" xmlns="http://www.w3.org/2000/svg">
<path d="M50.2503 1.68C50.2503 1.476 50.3161 1.306 50.4149 1.17C50.5465 1.034 50.6782 1 50.8757 1H58.8417C59.0062 1 59.1708 1.068 59.3025 1.17C59.4342 1.306 59.5 1.476 59.5 1.68V34.32C59.5 34.49 59.4342 34.66 59.3025 34.796C59.1708 34.932 59.0062 35 58.8417 35H50.6124C50.382 35 50.1844 34.898 50.0528 34.66L39.7497 15.824V34.32C39.7497 34.524 39.6839 34.694 39.5522 34.83C39.4205 34.966 39.256 35 39.0914 35H31.1583C30.9608 35 30.7963 34.932 30.6646 34.83C30.5329 34.694 30.5 34.524 30.5 34.32V1.68C30.5 1.476 30.5658 1.306 30.6646 1.17C30.7963 1.034 30.9608 1 31.1583 1H39.3876C39.618 1 39.8155 1.102 39.9143 1.306L50.2503 18.476V1.68Z" fill="white"/>
<path d="M87.7141 23.069L94.4949 28.3448C94.6355 28.4483 94.7057 28.6207 94.7409 28.7931C94.776 28.9655 94.7057 29.1379 94.6003 29.2759C92.8788 31.3793 90.7356 33 88.2411 34.2069C85.7466 35.4138 83.0764 36 80.2305 36C77.736 36 75.3469 35.5172 73.0632 34.5862C70.7795 33.6552 68.8471 32.3793 67.1606 30.7586C65.5093 29.1379 64.2094 27.2414 63.2256 25C62.2419 22.7586 61.75 20.4483 61.75 18C61.75 15.5517 62.2419 13.2414 63.2256 11.0345C64.2094 8.82759 65.5093 6.89655 67.1606 5.27586C68.8119 3.65517 70.7795 2.37931 73.0632 1.44828C75.3469 0.482759 77.736 0 80.2305 0C83.0764 0 85.7466 0.586207 88.2411 1.7931C90.7356 3 92.8436 4.62069 94.5652 6.68966C94.6706 6.86207 94.7409 7.03448 94.7057 7.2069C94.6706 7.37931 94.6003 7.55172 94.4598 7.65517L87.6789 12.8966C87.5384 13 87.3627 13.069 87.187 13.0345C87.0114 13.0345 86.8708 12.9655 86.7654 12.8276C85.9574 11.931 84.9736 11.2069 83.8142 10.6207C82.6548 10.0345 81.4602 9.75862 80.2305 9.75862C77.8765 9.75862 75.909 10.5517 74.2577 12.1724C72.6064 13.7931 71.7983 15.7241 71.7983 18C71.7983 20.2759 72.6064 22.2069 74.2577 23.8276C75.909 25.4483 77.8765 26.2414 80.2305 26.2414C81.4602 26.2414 82.6548 25.9655 83.8142 25.3793C84.9736 24.7931 85.9925 24.069 86.8006 23.1379C86.906 23 87.0816 22.931 87.2222 22.931C87.3978 22.8966 87.5735 22.9655 87.7141 23.069Z" fill="white"/>
<path d="M12.8356 36C10.4165 36 8.10574 35.8012 5.90329 35.4036C3.73694 35.006 1.89555 34.4458 0.37911 33.7229V24.6145C2.07608 25.4096 3.93553 26.0602 5.95745 26.5663C8.01547 27.0723 9.89297 27.3253 11.5899 27.3253C13.0342 27.3253 14.1354 27.1807 14.8936 26.8916C15.6879 26.6024 16.0851 26.0602 16.0851 25.2651C16.0851 24.3614 15.4894 23.7108 14.2979 23.3133C13.1064 22.8795 11.3914 22.2831 9.15281 21.5241C6.84204 20.7289 5.0187 19.8795 3.68279 18.9759C2.38298 18.0361 1.44423 16.9157 0.866538 15.6145C0.288846 14.2771 0 12.6506 0 10.7349C0 3.57831 4.96454 0 14.8936 0C16.1212 0 17.421 0.0903616 18.793 0.271084C20.2012 0.415663 21.5371 0.614457 22.8008 0.86747C24.1006 1.08434 25.2018 1.33735 26.1044 1.62651V10.7892C24.2631 10.0663 22.5661 9.56024 21.0135 9.27108C19.4971 8.94578 18.107 8.78313 16.8433 8.78313C15.5796 8.78313 14.4242 8.89157 13.3772 9.10843C12.3662 9.28916 11.8607 9.79518 11.8607 10.6265C11.8607 11.3133 12.3121 11.8373 13.2147 12.1988C14.1173 12.5241 15.6338 12.9759 17.764 13.5542C20.6164 14.3494 22.7647 15.2892 24.2089 16.3735C25.6892 17.4578 26.6821 18.741 27.1876 20.2229C27.7292 21.6687 28 23.3313 28 25.2108C28 28.4639 26.7363 31.0843 24.2089 33.0723C21.6815 35.0241 17.8904 36 12.8356 36Z" fill="#B50000"/>
</svg>
